<?xml version="1.0" encoding="UTF-8" standalone="no"?> <svg height="512pt" viewBox="0 -15 512 511" width="512pt" xmlns="http://www.w3.org/2000/svg"><path d="m271 89.601562v-89.101562l-15 22.800781-102.898438 156.300781h87.898438v89.097657l15-22.800781 102.898438-156.296876zm0 0" fill="#ffda2d"/><path d="m451 134.601562v107.226563l-77.796875 108.910156-24.40625-17.433593 69.804687-97.730469c-12.195312-8.125-26.761718-12.191407-41.722656-11.035157-19.394531 1.378907-37.222656 11.074219-48.867187 26.632813l-57.011719 76.011719v154.417968h150v-42.839843l91-150v-199.160157h-15c-24.851562 0-46 20.144532-46 45zm0 0" fill="#fcced3"/><path d="m61 134.601562v107.226563l77.796875 108.910156 24.40625-17.433593-69.804687-97.730469c12.195312-8.125 26.761718-12.191407 41.722656-11.035157 19.394531 1.378907 37.222656 11.074219 48.867187 26.632813l57.011719 76.011719v154.417968h-150v-42.839843l-91-150v-199.160157h15c24.851562 0 46 20.144532 46 45zm0 0" fill="#fde4e4"/><path d="m358.898438 89.601562-102.898438 156.296876v-222.597657l15-22.800781v89.101562zm0 0" fill="#fdbf00"/></svg>