<svg xmlns="http://www.w3.org/2000/svg" data-name="Layer 1" viewBox="0 0 32 32"><path fill="#e0e0e2" d="M30.7,9.95c-.27.43-.96.06-1.43.59a.20281.20281,0,0,0-.06.09c-.33.46,0,.98-.4,2.01a2.27171,2.27171,0,0,1-.28.52,1.53348,1.53348,0,0,0-.31006.57c-.31,1.02.17,1.68-.17,1.94-.36.27-1.18-.28-1.26-.34a1.67272,1.67272,0,0,1-.8-1.00995,1.51559,1.51559,0,0,1,.46-1.16c.21-.29.42-.5.34-.6-.12-.16-.58-.03-1.50995.25a6.807,6.807,0,0,0-1,.35,1.54824,1.54824,0,0,0-.69.44,1.62266,1.62266,0,0,0-.4.95c-.05,1.04,1.14,1.7.95,2.04-.11.2-.53.08-.88.09-1.64.04-1.93,2.77-4.29,4.79-1.54,1.32-2.34.94-2.98,2.14-.62,1.16-.01,1.76-.34,3.7-.35,2.03-1.5,4.26-2.48,4.21-.14-.00995-.44-.08-1.43-1.73A28.73261,28.73261,0,0,1,9.97,26.3C9.08,24.31,8.63,23.29,8.46,22.73a9.18914,9.18914,0,0,1-.63-3.36c.05-1.04.23-1.78.04-1.85-.34-.14-1.01,2.29-2.45,2.59-1.05.23-2.15-.75-2.92-1.61a2.8959,2.8959,0,0,0,2.41-1.04,2.35349,2.35349,0,0,0,.45-1.22,2.99856,2.99856,0,0,1-2.44.13,3.00316,3.00316,0,0,1-1.71-2.12,3.17887,3.17887,0,0,1,1.41-.75,5.7241,5.7241,0,0,1,1.15-.11c.52,0,1.01.09,1.34-.23.01-.02.03-.03.04-.05.22-.3-.27-.76-.33-1.45a2.9158,2.9158,0,0,1,.01-.32c0-.04.01-.06.01-.09.11-.54.49-1.12.89-1.13.37-.02.45.5.84.54.51.07,1.03-.76,2.06-2.43A7.96954,7.96954,0,0,1,9.64,6.71c.55-.59.89-.66.88-.96-.03-.74-1.76-1.03-1.77-1.81,0-.45.56-.56.55-1.01-.01-.77-1.66-1-1.64-1.51C7.68.87,9.73.08,10.86.83c.64.42.66,1.13,1.3,1.25.49005.1.64-.28,1.39-.37.79-.1,1.76.19,1.84.61005.11.53-1.24.87-1.26,1.76-.01.53.47.75.34,1.16-.16.55-1.09.5-1.12994.84-.08.62005,2.51,1.13,2.52,2.1,0,.47-.59.73-.46,1.18.09.35.54.51.75.59,3.46,1.22,6.05,2.12,6.35,1.47.08-.17-.09-.25-.12-.76-.06-.74.22-1.58.5-1.59.32-.02.32,1.37,1.22,1.81a2.06029,2.06029,0,0,0,1.85-.26c.7-.44.58-.93,1.39-1.85.5-.56995,1.12-1.28,1.85-1.22C30.23,7.65,31.09,9.33,30.7,9.95Z"/><path fill="#d9d8da" d="M9.64 6.71A7.96954 7.96954 0 0 0 8.63 8.23a13.568 13.568 0 0 1-1.47576 2.14948A.652.652 0 0 0 7.57 10.66c.51.07 1.03-.76 2.06-2.43a7.96954 7.96954 0 0 1 1.01-1.52c.55-.59.89-.66.88-.96-.03-.74-1.76-1.03-1.77-1.81 0-.45.56-.56.55-1.01-.01-.77-1.66-1-1.64-1.51.0116-.31842.7074-.70886 1.50733-.84277C9.04858.3728 7.67633.96979 7.66 1.42c-.02.51 1.63.74 1.64 1.51.01.45-.55.56-.55 1.01.01.78 1.74 1.07 1.77 1.81C10.53 6.05 10.19 6.12 9.64 6.71zM13.16 2.08c.45447.09277.63581-.21924 1.255-.33808A2.8666 2.8666 0 0 0 13.55 1.71a2.06093 2.06093 0 0 0-.716.22211A.76154.76154 0 0 0 13.16 2.08zM5.15 13.11c-.01.02-.03.03-.04.05a.91306.91306 0 0 1-.59784.23487c.155-.00605.25787-.00483.25787-.00483.52 0 1.01.09 1.34-.23.01-.02.03-.03.04-.05.22-.3-.27-.76-.33-1.45a2.9158 2.9158 0 0 1 .01-.32c0-.04.01-.06.01-.09a1.9417 1.9417 0 0 1 .37774-.8053c-.14361-.15692-.26489-.33679-.48779-.3247-.4.01-.78.59-.89 1.13 0 .03-.01.05-.01.09a2.9158 2.9158 0 0 0-.01.32C4.88 12.35 5.37 12.81 5.15 13.11zM4.4812 16.52692A2.64386 2.64386 0 0 1 3.92 16.37a3.00316 3.00316 0 0 1-1.71-2.12 3.17887 3.17887 0 0 1 1.41-.75 5.2218 5.2218 0 0 1 .887-.10492C4.2793 13.412 4.0285 13.39 3.77 13.39a5.7241 5.7241 0 0 0-1.15.11 3.17887 3.17887 0 0 0-1.41.75 3.00316 3.00316 0 0 0 1.71 2.12A2.77618 2.77618 0 0 0 4.4812 16.52692zM12.74 29.79a28.73261 28.73261 0 0 1-1.77-3.49c-.89-1.99-1.34-3.01-1.50995-3.57a9.18914 9.18914 0 0 1-.63-3.36c.05-1.04.23-1.78.04-1.85-.19727-.08118-.50708.70227-1.01246 1.43341-.01074.13287-.0205.27093-.02752.41663a9.18914 9.18914 0 0 0 .63 3.36c.17.56.62 1.58 1.50995 3.57a28.73261 28.73261 0 0 0 1.77 3.49c.99 1.65 1.29 1.72 1.43 1.73a.97044.97044 0 0 0 .6059-.24793A8.733 8.733 0 0 1 12.74 29.79zM3.5 18.5a2.8959 2.8959 0 0 0 2.41-1.04 2.35349 2.35349 0 0 0 .45-1.22 3.27642 3.27642 0 0 1-1.04725.30988A2.30761 2.30761 0 0 1 4.91 17.46 2.8959 2.8959 0 0 1 2.5 18.5c.77.86 1.87 1.84 2.92 1.61a1.47472 1.47472 0 0 0 .16455-.05048A5.17543 5.17543 0 0 1 3.5 18.5z"/><path fill="#37b678" d="M18,22.16c-.94.54-1.52.53-2.01,1.45-.62,1.16-.01,1.76-.34,3.7-.35,2.03-1.5,4.26-2.48,4.21-.14-.00995-.44-.08-1.43-1.73A28.73261,28.73261,0,0,1,9.97,26.3C9.08,24.31,8.63,23.29,8.46,22.73c-.06-.2-.12-.39-.17-.57Z"/><path fill="#00a653" d="M12.74,29.79a28.73261,28.73261,0,0,1-1.77-3.49c-.89-1.99-1.34-3.01-1.50995-3.57-.06-.2-.12-.39-.17-.57h-1c.05005.18.11.37.17.57.17.56.62,1.58,1.50995,3.57a28.73261,28.73261,0,0,0,1.77,3.49c.99,1.65,1.29,1.72,1.43,1.73a.97044.97044,0,0,0,.6059-.24793A8.733,8.733,0,0,1,12.74,29.79Z"/><path fill="#f7991d" d="M30.7,9.95c-.27.43-.96.06-1.43.59a.20281.20281,0,0,0-.06.09c-.33.46,0,.98-.4,2.01a2.27171,2.27171,0,0,1-.28.52H26.45c.21-.29.42-.5.34-.6-.12-.16-.58-.03-1.50995.25a6.807,6.807,0,0,0-1,.35H5.11c.01-.02.03-.03.04-.05.22-.3-.27-.76-.33-1.45a2.9158,2.9158,0,0,1,.01-.32c0-.04.01-.06.01-.09.11-.54.49-1.12.89-1.13.37-.02.45.5.84.54.51.07,1.03-.76,2.06-2.43A7.96954,7.96954,0,0,1,9.64,6.71c.55-.59.89-.66.88-.96-.03-.74-1.76-1.03-1.77-1.81,0-.45.56-.56.55-1.01-.01-.77-1.66-1-1.64-1.51C7.68.87,9.73.08,10.86.83c.64.42.66,1.13,1.3,1.25.49005.1.64-.28,1.39-.37.79-.1,1.76.19,1.84.61005.11.53-1.24.87-1.26,1.76-.01.53.47.75.34,1.16-.16.55-1.09.5-1.12994.84-.08.62005,2.51,1.13,2.52,2.1,0,.47-.59.73-.46,1.18.09.35.54.51.75.59,3.46,1.22,6.05,2.12,6.35,1.47.08-.17-.09-.25-.12-.76-.06-.74.22-1.58.5-1.59.32-.02.32,1.37,1.22,1.81a2.06029,2.06029,0,0,0,1.85-.26c.7-.44.58-.93,1.39-1.85.5-.56995,1.12-1.28,1.85-1.22C30.23,7.65,31.09,9.33,30.7,9.95Z"/><path fill="#e37626" d="M13.16 2.08c.45447.09277.63581-.21924 1.255-.33808A2.8666 2.8666 0 0 0 13.55 1.71a2.06093 2.06093 0 0 0-.716.22211A.76154.76154 0 0 0 13.16 2.08zM9.64 6.71A7.96954 7.96954 0 0 0 8.63 8.23a13.568 13.568 0 0 1-1.47576 2.14948A.652.652 0 0 0 7.57 10.66c.51.07 1.03-.76 2.06-2.43a7.96954 7.96954 0 0 1 1.01-1.52c.55-.59.89-.66.88-.96-.03-.74-1.76-1.03-1.77-1.81 0-.45.56-.56.55-1.01-.01-.77-1.66-1-1.64-1.51.0116-.31842.7074-.70886 1.50733-.84277C9.04858.3728 7.67633.96979 7.66 1.42c-.02.51 1.63.74 1.64 1.51.01.45-.55.56-.55 1.01.01.78 1.74 1.07 1.77 1.81C10.53 6.05 10.19 6.12 9.64 6.71zM5.82 11.66a2.9158 2.9158 0 0 1 .01-.32c0-.04.01-.06.01-.09a1.9417 1.9417 0 0 1 .37774-.8053c-.14361-.15692-.26489-.33679-.48779-.3247-.4.01-.78.59-.89 1.13 0 .03-.01.05-.01.09a2.9158 2.9158 0 0 0-.01.32c.06.69.55 1.15.33 1.45-.01.02-.03.03-.04.05h1c.01-.02.03-.03.04-.05C6.37 12.81 5.88 12.35 5.82 11.66z"/></svg>